<svg xmlns="http://www.w3.org/2000/svg" xmlns:xlink="http://www.w3.org/1999/xlink" width="1920" zoomAndPan="magnify" viewBox="0 0 1440 476.249999" height="635" preserveAspectRatio="xMidYMid meet" version="1.0"><defs><clipPath id="102ced2e35"><path d="M 1.132812 54 L 1438.867188 54 L 1438.867188 475.5 L 1.132812 475.5 Z M 1.132812 54 " clip-rule="nonzero"/></clipPath><clipPath id="6ef69c80bd"><path d="M 1.132812 20.113281 L 1438.867188 20.113281 L 1438.867188 98 L 1.132812 98 Z M 1.132812 20.113281 " clip-rule="nonzero"/></clipPath></defs><g clip-path="url(#102ced2e35)"><path fill="#000000" d="M -20.085938 54.433594 L 1460.742188 54.433594 L 1460.742188 510.25 L -20.085938 510.25 Z M -20.085938 54.433594 " fill-opacity="1" fill-rule="nonzero"/></g><path fill="#000000" d="M 938.132812 26.890625 C 938.417969 27.027344 938.734375 27.089844 939.058594 27.132812 C 939.035156 26.867188 938.496094 26.695312 939.058594 26.695312 C 939.058594 26.691406 939.050781 26.6875 939.050781 26.683594 C 938.640625 26.6875 938.132812 26.703125 938.132812 26.890625 Z M 938.132812 26.890625 " fill-opacity="1" fill-rule="nonzero"/><path fill="#000000" d="M 1333.621094 26.832031 C 1333.582031 26.832031 1333.550781 26.828125 1333.511719 26.824219 C 1333.574219 26.90625 1333.628906 26.972656 1333.652344 26.992188 C 1333.621094 26.925781 1333.613281 26.875 1333.621094 26.832031 Z M 1333.621094 26.832031 " fill-opacity="1" fill-rule="nonzero"/><g clip-path="url(#6ef69c80bd)"><path fill="#000000" d="M 1451.109375 29.867188 C 1451.214844 29.453125 1452.65625 29.765625 1452.140625 30.175781 C 1453.175781 30.074219 1453.382812 29.558594 1454.207031 29.25 C 1454.824219 29.972656 1456.785156 29.042969 1456.992188 29.042969 C 1456.058594 27.90625 1450.082031 29.453125 1448.222656 28.628906 C 1450.699219 27.394531 1445.128906 27.1875 1441.210938 27.496094 C 1442.347656 28.011719 1440.277344 27.703125 1440.179688 28.011719 C 1439.660156 27.90625 1440.078125 27.703125 1440.488281 27.703125 C 1439.316406 27.390625 1437.796875 27.839844 1436.453125 27.773438 C 1436.246094 27.863281 1436.660156 27.976562 1436.660156 28.234375 C 1436.152344 28.128906 1435.328125 28.234375 1435.21875 28.027344 C 1435.734375 27.921875 1435.429688 27.613281 1435.21875 27.511719 C 1435.25 27.515625 1435.28125 27.519531 1435.3125 27.523438 C 1435.28125 27.511719 1435.257812 27.511719 1435.226562 27.496094 C 1435.226562 27.289062 1435.84375 27.289062 1436.261719 27.289062 C 1436.050781 26.671875 1434.8125 26.566406 1433.058594 26.671875 C 1432.960938 26.980469 1433.367188 26.980469 1433.367188 27.1875 C 1430.792969 27.1875 1428.007812 27.394531 1426.050781 27.703125 C 1426.050781 28.011719 1426.566406 28.113281 1426.359375 28.628906 C 1427.183594 28.835938 1428.316406 28.941406 1428.417969 29.558594 C 1427.800781 29.972656 1426.148438 29.867188 1424.605469 29.867188 C 1423.265625 29.558594 1424.089844 29.25 1423.15625 29.042969 C 1422.332031 29.042969 1421.40625 29.042969 1421.40625 29.351562 C 1420.890625 28.941406 1419.855469 28.835938 1419.347656 28.527344 C 1418.929688 29.351562 1417.386719 29.765625 1415.835938 30.074219 C 1415.628906 30.589844 1416.453125 30.589844 1415.835938 30.898438 C 1415.527344 30.695312 1414.597656 30.382812 1414.804688 31.105469 C 1413.460938 30.695312 1410.785156 31.621094 1409.234375 30.589844 C 1408.308594 30.898438 1407.175781 31.003906 1406.761719 31.519531 C 1402.84375 31.519531 1397.273438 32.34375 1391.804688 32.242188 C 1391.386719 32.136719 1391.082031 32.035156 1390.773438 31.828125 C 1390.15625 32.035156 1389.121094 32.035156 1388.195312 32.035156 C 1388.09375 32.035156 1387.886719 32.035156 1387.785156 32.035156 C 1387.785156 32.140625 1387.785156 32.140625 1387.785156 32.140625 C 1387.457031 32.191406 1387.167969 32.25 1386.945312 32.316406 C 1386.945312 32.332031 1386.953125 32.339844 1386.953125 32.359375 C 1386.914062 32.359375 1386.875 32.359375 1386.839844 32.359375 C 1386.699219 32.414062 1386.582031 32.472656 1386.546875 32.550781 C 1386.484375 32.550781 1386.453125 32.550781 1386.414062 32.550781 C 1386.40625 32.578125 1386.414062 32.617188 1386.4375 32.667969 C 1386.027344 32.667969 1385.710938 32.5625 1385.402344 32.460938 C 1385.402344 32.359375 1385.402344 32.253906 1385.402344 32.152344 C 1386.027344 32.152344 1386.546875 32.046875 1386.851562 31.945312 C 1386.851562 31.972656 1386.867188 32 1386.875 32.027344 C 1387.933594 31.230469 1389.675781 30.726562 1389.847656 29.867188 C 1391.804688 29.972656 1392.222656 29.453125 1395.105469 29.558594 C 1395.003906 29.351562 1394.382812 29.453125 1394.382812 29.25 C 1395.3125 29.144531 1397.480469 29.355469 1397.890625 28.628906 C 1398.300781 28.734375 1398.097656 28.941406 1398.199219 29.144531 C 1399.847656 28.734375 1400.367188 28.734375 1402.425781 28.527344 C 1400.257812 29.042969 1403.351562 28.941406 1404.175781 29.042969 C 1404.484375 28.527344 1403.042969 28.734375 1402.734375 28.527344 C 1405 28.628906 1407.066406 28.011719 1410.0625 28.21875 C 1410.0625 27.910156 1410.988281 28.011719 1410.777344 27.597656 C 1411.601562 27.597656 1412.429688 27.597656 1413.253906 27.597656 C 1413.460938 28.835938 1418.824219 27.597656 1418.824219 28.527344 C 1420.78125 27.804688 1424.5 28.011719 1424.390625 26.464844 C 1424.082031 26.464844 1424.191406 26.671875 1424.082031 26.773438 C 1419.238281 26.050781 1415.835938 26.980469 1411.8125 27.394531 C 1411.292969 27.289062 1410.679688 27.1875 1410.777344 26.773438 C 1408.609375 27.082031 1405.109375 26.667969 1403.765625 27.597656 C 1402.425781 27.597656 1399.847656 27.289062 1400.566406 27.804688 C 1397.992188 27.703125 1398.609375 27.703125 1395.621094 27.597656 C 1396.957031 26.773438 1391.289062 27.394531 1390.363281 27.804688 C 1390.871094 27.1875 1389.121094 27.496094 1387.160156 27.1875 C 1387.160156 27.394531 1387.160156 27.597656 1387.160156 27.804688 C 1386.238281 27.703125 1386.851562 27.597656 1386.851562 27.1875 C 1385.511719 27.082031 1384.6875 26.773438 1383.660156 26.671875 C 1383.34375 26.875 1382.933594 27.082031 1382.628906 27.1875 C 1381.59375 27.1875 1381.285156 26.875 1380.867188 26.566406 C 1382.417969 26.980469 1384.167969 26.667969 1384.378906 25.328125 C 1383.34375 25.226562 1382.210938 25.121094 1382.320312 24.503906 C 1381.703125 24.503906 1381.175781 24.503906 1380.558594 24.503906 C 1380.25 25.019531 1381.183594 25.019531 1381.285156 25.328125 C 1380.460938 25.121094 1380.152344 24.8125 1379.84375 24.503906 C 1376.023438 24.609375 1375.097656 24.917969 1371.796875 23.988281 C 1367.570312 25.535156 1360.453125 24.300781 1356.742188 25.226562 C 1356.433594 24.917969 1355.808594 24.8125 1354.675781 24.917969 C 1354.058594 25.742188 1352.410156 26.257812 1354.675781 26.773438 C 1357.460938 26.257812 1361.488281 25.640625 1364.472656 25.332031 C 1365.40625 25.433594 1364.78125 25.535156 1364.78125 25.949219 C 1365.40625 25.949219 1366.539062 26.15625 1366.230469 25.640625 C 1366.847656 25.742188 1366.539062 26.15625 1367.671875 25.949219 C 1367.5625 26.15625 1367.363281 26.257812 1367.363281 26.464844 C 1367.855469 26.550781 1368.089844 26.523438 1368.242188 26.457031 C 1366.839844 27.214844 1365.890625 27.726562 1363.238281 27.910156 C 1363.136719 28.21875 1363.546875 28.21875 1363.546875 28.421875 C 1361.585938 27.90625 1361.894531 29.144531 1359.734375 28.941406 C 1359.628906 28.527344 1360.246094 28.421875 1360.761719 28.320312 C 1359.320312 27.804688 1357.570312 28.527344 1356.226562 27.496094 C 1355.601562 27.703125 1354.367188 28.011719 1355.191406 28.425781 C 1352.410156 27.910156 1348.382812 27.910156 1347.148438 27.601562 C 1345.808594 28.117188 1343.746094 28.324219 1342.921875 29.148438 C 1341.890625 29.25 1342.503906 28.632812 1341.164062 28.839844 C 1341.164062 28.324219 1342.714844 28.324219 1340.855469 28.324219 C 1341.0625 28.222656 1341.480469 28.117188 1341.890625 28.015625 C 1340.554688 27.601562 1340.238281 28.839844 1339.414062 29.148438 C 1338.179688 29.253906 1337.453125 28.738281 1336.628906 29.148438 C 1337.046875 28.941406 1337.046875 28.738281 1336.628906 28.53125 C 1337.5625 28.324219 1338.179688 28.941406 1338.078125 28.324219 C 1337.460938 28.324219 1336.9375 28.324219 1336.320312 28.324219 C 1337.5625 27.808594 1338.902344 26.878906 1341.582031 27.085938 C 1341.898438 26.777344 1342.613281 26.671875 1342.304688 26.160156 C 1344.164062 26.160156 1350.042969 26.160156 1351.382812 25.023438 C 1349.625 25.332031 1349.523438 24.714844 1347.875 25.230469 C 1347.148438 25.230469 1348.390625 24.816406 1347.566406 24.613281 C 1346.949219 25.125 1346.332031 24.613281 1345.507812 24.613281 C 1341.589844 24.714844 1338.078125 25.230469 1334.675781 26.054688 C 1335.140625 26.703125 1333.699219 26.441406 1333.613281 26.824219 C 1333.75 26.828125 1333.898438 26.824219 1334.050781 26.789062 C 1334.460938 27.820312 1331.886719 27.40625 1331.367188 27.511719 C 1331.785156 27.511719 1332.195312 27.511719 1332.09375 27.820312 C 1330.132812 27.820312 1329.101562 28.128906 1327.140625 28.4375 C 1326.515625 28.132812 1325.800781 27.820312 1325.699219 27.203125 C 1326.726562 26.894531 1328.167969 26.273438 1329.203125 26.894531 C 1328.277344 26.378906 1331.886719 25.863281 1333.019531 26.273438 C 1332.449219 26.355469 1332.851562 26.753906 1333.503906 26.816406 C 1333.21875 26.453125 1332.65625 25.605469 1333.335938 25.4375 C 1331.683594 25.644531 1329.417969 25.128906 1327.042969 25.644531 C 1326.523438 24.71875 1323.222656 25.335938 1321.472656 25.335938 C 1321.472656 25.128906 1321.882812 25.128906 1322.191406 25.128906 C 1317.246094 24.613281 1307.136719 26.058594 1299.816406 24.820312 C 1299.398438 24.097656 1300.640625 24.097656 1301.257812 23.890625 C 1299.917969 22.550781 1297.234375 23.171875 1294.964844 22.65625 C 1291.464844 23.375 1287.746094 21.828125 1283.101562 22.035156 C 1283.003906 21.621094 1284.445312 21.929688 1284.136719 21.417969 C 1283.3125 21.109375 1282.386719 21.621094 1280.945312 21.417969 C 1280.21875 22.34375 1279.910156 22.964844 1280.21875 23.789062 C 1276.816406 24.820312 1274.339844 26.261719 1276.710938 28.015625 C 1276.5 29.976562 1268.355469 29.5625 1265.878906 29.5625 C 1266.089844 29.460938 1266.1875 29.253906 1266.605469 29.253906 C 1265.878906 28.738281 1263.511719 29.046875 1263.820312 28.121094 C 1261.960938 27.914062 1262.269531 28.632812 1261.035156 28.632812 C 1261.136719 28.941406 1261.753906 29.253906 1261.554688 29.457031 C 1259.695312 29.046875 1255.050781 30.078125 1253.402344 29.355469 C 1255.878906 28.117188 1250.308594 27.910156 1246.390625 28.222656 C 1247.523438 28.734375 1245.464844 28.425781 1245.355469 28.734375 C 1244.839844 28.632812 1245.257812 28.425781 1245.664062 28.425781 C 1244.460938 28.105469 1242.890625 28.589844 1241.515625 28.480469 C 1241.59375 28.570312 1241.746094 28.699219 1241.746094 28.851562 C 1241.230469 28.746094 1240.40625 28.851562 1240.296875 28.644531 C 1240.691406 28.566406 1240.605469 28.371094 1240.460938 28.238281 C 1240.445312 28.230469 1240.421875 28.226562 1240.40625 28.21875 C 1240.40625 28.214844 1240.414062 28.207031 1240.414062 28.203125 C 1240.375 28.175781 1240.335938 28.148438 1240.304688 28.128906 C 1240.34375 28.136719 1240.390625 28.144531 1240.4375 28.148438 C 1240.566406 28.011719 1241.085938 28.011719 1241.4375 28.011719 C 1241.230469 27.394531 1239.996094 27.289062 1238.246094 27.394531 C 1238.136719 27.703125 1238.554688 27.703125 1238.554688 27.910156 C 1235.972656 27.910156 1233.1875 28.117188 1231.226562 28.425781 C 1231.226562 28.734375 1231.746094 28.835938 1231.535156 29.351562 C 1232.363281 29.558594 1233.496094 29.664062 1233.601562 30.28125 C 1232.984375 30.691406 1231.335938 30.589844 1229.785156 30.589844 C 1228.445312 30.28125 1229.269531 29.972656 1228.34375 29.765625 C 1227.519531 29.765625 1226.59375 29.765625 1226.59375 30.074219 C 1226.074219 29.664062 1225.042969 29.558594 1224.527344 29.25 C 1224.117188 30.074219 1222.566406 30.488281 1221.023438 30.796875 C 1220.816406 31.3125 1221.640625 31.3125 1221.023438 31.621094 C 1220.707031 31.417969 1219.78125 31.105469 1219.992188 31.828125 C 1218.648438 31.417969 1215.964844 32.34375 1214.414062 31.3125 C 1213.488281 31.621094 1212.355469 31.726562 1211.945312 32.242188 C 1207.09375 32.242188 1199.667969 33.582031 1193.066406 32.757812 C 1193.066406 32.964844 1193.066406 33.167969 1193.066406 33.375 C 1192.757812 33.167969 1192.246094 33.167969 1191.625 33.167969 C 1191.660156 33.121094 1191.707031 33.074219 1191.746094 33.023438 C 1191.652344 33.046875 1191.570312 33.125 1191.625 33.285156 C 1191.207031 33.285156 1190.898438 33.179688 1190.589844 33.078125 C 1190.589844 32.972656 1190.589844 32.871094 1190.589844 32.769531 C 1191.207031 32.769531 1191.722656 32.664062 1192.03125 32.558594 C 1191.96875 32.621094 1191.992188 32.683594 1192.039062 32.742188 C 1193.082031 31.886719 1194.957031 31.378906 1195.132812 30.488281 C 1197.089844 30.589844 1197.507812 30.074219 1200.390625 30.179688 C 1200.285156 29.972656 1199.667969 30.074219 1199.667969 29.871094 C 1200.601562 29.765625 1202.769531 29.972656 1203.175781 29.25 C 1203.585938 29.351562 1203.386719 29.558594 1203.484375 29.765625 C 1205.136719 29.351562 1205.652344 29.351562 1207.710938 29.144531 C 1205.542969 29.664062 1208.636719 29.558594 1209.460938 29.664062 C 1209.769531 29.144531 1208.328125 29.351562 1208.019531 29.144531 C 1210.289062 29.25 1212.355469 28.632812 1215.339844 28.839844 C 1215.339844 28.527344 1216.273438 28.632812 1216.066406 28.21875 C 1216.890625 28.21875 1217.714844 28.21875 1218.539062 28.21875 C 1218.75 29.457031 1224.109375 28.21875 1224.109375 29.148438 C 1226.066406 28.425781 1229.785156 28.632812 1229.675781 27.085938 C 1229.367188 27.085938 1229.476562 27.289062 1229.367188 27.394531 C 1224.527344 26.671875 1221.125 27.597656 1217.097656 28.011719 C 1216.582031 27.910156 1215.964844 27.804688 1216.066406 27.394531 C 1213.898438 27.703125 1210.394531 27.289062 1209.054688 28.21875 C 1207.710938 28.21875 1205.136719 27.910156 1205.851562 28.425781 C 1203.277344 28.320312 1203.894531 28.320312 1200.902344 28.21875 C 1202.242188 27.394531 1196.574219 28.011719 1195.648438 28.425781 C 1196.160156 27.804688 1194.40625 28.117188 1192.449219 27.804688 C 1192.449219 28.011719 1192.449219 28.21875 1192.449219 28.425781 C 1191.523438 28.320312 1192.140625 28.21875 1192.140625 27.804688 C 1190.796875 27.703125 1189.972656 27.394531 1188.9375 27.289062 C 1188.628906 27.496094 1188.222656 27.703125 1187.914062 27.804688 C 1186.878906 27.804688 1186.570312 27.496094 1186.15625 27.1875 C 1187.707031 27.597656 1189.457031 27.289062 1189.664062 25.949219 C 1188.628906 25.847656 1187.496094 25.742188 1187.597656 25.125 C 1186.980469 25.125 1186.472656 25.125 1185.847656 25.125 C 1185.539062 25.640625 1186.472656 25.640625 1186.570312 25.949219 C 1185.746094 25.742188 1185.4375 25.433594 1185.128906 25.125 C 1181.3125 25.226562 1180.386719 25.539062 1177.085938 24.609375 C 1172.851562 26.15625 1165.738281 24.917969 1162.023438 25.847656 C 1161.714844 25.539062 1161.097656 25.433594 1159.964844 25.539062 C 1159.347656 26.363281 1157.695312 26.878906 1159.964844 27.394531 C 1162.746094 26.878906 1166.765625 26.257812 1169.757812 25.949219 C 1170.691406 26.054688 1170.066406 26.15625 1170.066406 26.570312 C 1170.691406 26.570312 1171.824219 26.777344 1171.507812 26.261719 C 1172.132812 26.363281 1171.824219 26.777344 1172.957031 26.570312 C 1172.851562 26.777344 1172.648438 26.878906 1172.648438 27.085938 C 1173.144531 27.175781 1173.375 27.144531 1173.53125 27.078125 C 1172.125 27.835938 1171.175781 28.347656 1168.523438 28.527344 C 1168.414062 28.835938 1168.832031 28.835938 1168.832031 29.042969 C 1166.875 28.527344 1167.183594 29.765625 1165.015625 29.558594 C 1164.914062 29.148438 1165.53125 29.042969 1166.046875 28.941406 C 1164.605469 28.425781 1162.847656 29.148438 1161.511719 28.117188 C 1160.886719 28.324219 1159.65625 28.632812 1160.480469 29.046875 C 1157.695312 28.527344 1153.667969 28.527344 1152.433594 28.21875 C 1151.09375 28.738281 1149.027344 28.945312 1148.207031 29.765625 C 1147.175781 29.871094 1147.792969 29.253906 1146.449219 29.460938 C 1146.449219 28.945312 1148 28.945312 1146.140625 28.945312 C 1146.351562 28.839844 1146.765625 28.738281 1147.175781 28.636719 C 1145.832031 28.222656 1145.523438 29.460938 1144.699219 29.769531 C 1143.464844 29.871094 1142.742188 29.359375 1141.914062 29.769531 C 1142.332031 29.5625 1142.332031 29.359375 1141.914062 29.152344 C 1142.839844 28.945312 1143.464844 29.5625 1143.359375 28.945312 C 1142.742188 28.945312 1142.222656 28.945312 1141.605469 28.945312 C 1142.847656 28.429688 1144.191406 27.5 1146.867188 27.707031 C 1147.175781 27.398438 1147.898438 27.292969 1147.589844 26.78125 C 1149.441406 26.78125 1155.328125 26.78125 1156.660156 25.644531 C 1154.910156 25.953125 1154.8125 25.335938 1153.160156 25.851562 C 1152.433594 25.851562 1153.675781 25.4375 1152.851562 25.230469 C 1152.234375 25.746094 1151.609375 25.230469 1150.785156 25.230469 C 1146.867188 25.335938 1143.367188 25.851562 1139.957031 26.675781 C 1140.417969 27.316406 1139.007812 27.0625 1138.898438 27.433594 C 1138.976562 27.425781 1139.054688 27.421875 1139.132812 27.40625 C 1139.539062 28.4375 1136.964844 27.921875 1136.445312 28.128906 C 1136.863281 28.128906 1137.273438 28.128906 1137.171875 28.4375 C 1135.214844 28.4375 1134.179688 28.746094 1132.21875 29.058594 C 1131.601562 28.75 1130.878906 28.4375 1130.777344 27.820312 C 1131.8125 27.511719 1133.253906 26.890625 1134.28125 27.511719 C 1133.355469 26.996094 1136.964844 26.480469 1138.097656 26.890625 C 1137.464844 26.980469 1138.019531 27.46875 1138.792969 27.449219 C 1138.515625 27.089844 1137.933594 26.230469 1138.621094 26.058594 C 1136.972656 26.265625 1134.695312 25.75 1132.328125 26.265625 C 1131.8125 25.335938 1128.511719 25.957031 1126.761719 25.957031 C 1126.761719 25.75 1127.167969 25.75 1127.476562 25.75 C 1122.535156 25.234375 1112.421875 26.675781 1105.101562 25.441406 C 1104.6875 24.71875 1105.929688 24.71875 1106.546875 24.511719 C 1105.203125 23.171875 1102.519531 23.789062 1100.25 23.277344 C 1096.75 23.996094 1093.03125 22.449219 1088.390625 22.65625 C 1088.289062 22.246094 1089.730469 22.554688 1089.421875 22.039062 C 1088.597656 21.726562 1087.671875 22.246094 1086.230469 22.039062 C 1085.503906 22.964844 1085.195312 23.585938 1085.503906 24.410156 C 1083.644531 25.027344 1081.996094 25.648438 1081.378906 26.472656 C 1081.277344 26.472656 1081.171875 26.472656 1081.070312 26.472656 C 1080.761719 26.679688 1080.554688 26.882812 1080.035156 27.089844 C 1076.636719 26.574219 1067.972656 26.679688 1061.472656 26.574219 C 1056.828125 26.472656 1053.019531 27.296875 1050.644531 28.121094 C 1050.851562 28.949219 1050.542969 29.257812 1051.367188 29.671875 C 1050.027344 29.773438 1048.277344 29.566406 1047.140625 30.183594 C 1046.726562 30.082031 1046.933594 29.875 1046.832031 29.671875 C 1042.289062 30.496094 1041.574219 28.019531 1037.347656 28.433594 C 1038.582031 27.609375 1034.761719 28.535156 1034.5625 27.609375 C 1026.617188 28.742188 1016.199219 26.988281 1007.636719 28.226562 C 1007.019531 29.464844 1005.269531 30.1875 1003.101562 30.703125 C 1002.378906 30.597656 1003.519531 30.394531 1002.792969 30.1875 C 1000.011719 29.773438 997.636719 30.394531 995.785156 29.566406 C 992.792969 29.566406 986.398438 31.117188 984.539062 29.773438 C 982.996094 29.878906 981.445312 29.773438 979.796875 29.671875 L 979.796875 31.839844 C 980.105469 31.941406 980.414062 32.042969 980.722656 32.144531 C 982.0625 32.144531 983.195312 31.628906 982.480469 31.324219 C 983.503906 31.324219 984.230469 31.527344 984.539062 31.941406 C 985.878906 31.632812 985.78125 31.734375 985.980469 32.148438 C 986.804688 32.148438 988.355469 31.011719 988.457031 32.148438 C 989.183594 31.839844 991.03125 31.941406 991.65625 31.527344 C 992.792969 31.527344 992.066406 32.5625 993.101562 32.042969 C 993 33.179688 989.796875 32.765625 989.90625 33.488281 C 988.457031 33.695312 985.570312 33.074219 987.113281 32.972656 C 986.089844 32.355469 982.789062 33.902344 982.578125 32.765625 C 981.238281 32.871094 979.277344 33.488281 980.828125 33.902344 C 980.519531 34.003906 980.203125 34.109375 979.894531 34.109375 L 979.894531 35.34375 C 979.796875 35.34375 979.6875 35.242188 979.585938 35.242188 C 977.527344 35.652344 976.804688 36.167969 974.636719 35.757812 C 974.636719 35.550781 974.742188 35.449219 974.84375 35.449219 C 974.636719 35.550781 974.433594 35.550781 974.226562 35.550781 L 974.226562 33.59375 C 973.816406 33.59375 973.402344 33.488281 972.675781 33.488281 C 973.808594 33.078125 971.652344 33.179688 972.675781 32.972656 C 972.367188 32.972656 968.757812 32.5625 968.867188 33.488281 C 968.757812 33.386719 967.316406 33.386719 967.523438 33.28125 C 966.082031 33.488281 964.015625 32.25 962.574219 33.179688 C 962.882812 32.765625 961.128906 32.765625 960.824219 32.25 C 958.238281 32.351562 955.871094 32.25 955.871094 31.117188 C 955.5625 31.117188 955.664062 31.320312 955.5625 31.425781 C 955.453125 31.628906 955.144531 31.320312 954.527344 31.425781 C 954.429688 32.558594 951.226562 31.835938 949.578125 32.351562 C 948.960938 32.351562 948.960938 31.425781 949.578125 31.425781 C 949.175781 30.722656 946.839844 30.992188 945.472656 30.820312 C 945.351562 30.894531 945.203125 30.949219 945.042969 30.917969 C 944.933594 30.503906 945.96875 29.886719 946.066406 30.09375 C 945.976562 30.148438 945.945312 30.207031 945.953125 30.261719 C 946.058594 30.214844 946.199219 30.1875 946.382812 30.1875 C 947.417969 30.289062 946.074219 30.496094 946.382812 30.808594 C 947.210938 30.394531 947.828125 29.984375 949.167969 30.289062 C 949.066406 29.671875 950.203125 29.671875 950.203125 29.15625 C 950.609375 29.363281 951.851562 29.363281 952.261719 29.15625 C 950.820312 30.289062 953.394531 30.910156 952.570312 31.527344 C 952.777344 31.527344 953.085938 31.527344 953.292969 31.527344 C 953.503906 31.527344 953.8125 31.527344 954.019531 31.527344 C 953.703125 31.011719 953.8125 30.601562 954.738281 31.011719 C 954.226562 30.703125 954.945312 29.363281 954.019531 29.261719 C 954.121094 28.847656 955.5625 29.15625 955.046875 29.566406 C 956.078125 29.464844 956.289062 28.949219 957.113281 28.640625 C 957.730469 29.363281 959.6875 28.433594 959.898438 28.433594 C 958.972656 27.296875 952.988281 28.84375 951.128906 28.019531 C 953.601562 26.785156 948.035156 26.578125 944.117188 26.886719 C 945.25 27.402344 943.191406 27.09375 943.082031 27.402344 C 942.566406 27.300781 942.984375 27.09375 943.390625 27.09375 C 942.132812 26.757812 940.476562 27.296875 939.066406 27.125 C 939.066406 27.152344 939.066406 27.175781 939.058594 27.207031 C 938.546875 27.101562 937.714844 27.207031 937.613281 26.996094 C 938.132812 26.894531 937.824219 26.585938 937.613281 26.480469 C 938.125 26.585938 938.925781 26.488281 939.050781 26.679688 C 939.089844 26.679688 939.125 26.679688 939.164062 26.679688 C 938.957031 26.0625 937.722656 25.957031 935.964844 26.0625 C 935.863281 26.371094 936.273438 26.371094 936.273438 26.578125 C 933.695312 26.578125 930.914062 26.785156 928.953125 27.09375 C 928.953125 27.402344 929.46875 27.503906 929.261719 28.019531 C 930.085938 28.226562 931.222656 28.328125 931.320312 28.949219 C 930.703125 29.359375 929.054688 29.257812 927.511719 29.257812 C 926.167969 28.949219 926.996094 28.640625 926.070312 28.433594 C 925.242188 28.433594 924.3125 28.433594 924.3125 28.742188 C 923.800781 28.328125 922.769531 28.226562 922.25 27.917969 C 921.835938 28.742188 920.292969 29.15625 918.742188 29.464844 C 918.535156 29.980469 919.359375 29.980469 918.742188 30.289062 C 918.433594 30.082031 917.507812 29.773438 917.707031 30.496094 C 916.367188 30.082031 913.691406 31.011719 912.140625 29.980469 C 911.933594 30.082031 911.632812 30.082031 911.421875 30.1875 C 909.253906 29.878906 906.261719 29.878906 904.820312 30.1875 C 903.789062 30.1875 903.371094 29.878906 903.070312 29.566406 C 900.386719 29.875 898.945312 29.257812 898.835938 28.535156 C 899.769531 28.433594 900.792969 28.328125 901.003906 27.917969 C 901.417969 28.019531 901.210938 28.226562 901.3125 28.433594 C 902.960938 28.019531 903.480469 28.019531 905.539062 27.816406 C 903.371094 28.328125 906.472656 28.226562 907.296875 28.328125 C 907.605469 27.816406 906.15625 28.019531 905.847656 27.816406 C 908.113281 27.917969 910.179688 27.296875 913.171875 27.503906 C 913.171875 27.195312 914.097656 27.296875 913.890625 26.886719 C 914.714844 26.886719 915.542969 26.886719 916.367188 26.886719 C 916.574219 28.125 921.933594 26.886719 921.933594 27.816406 C 923.902344 27.09375 927.613281 27.300781 927.511719 25.753906 C 927.203125 25.753906 927.304688 25.957031 927.203125 26.0625 C 922.351562 25.339844 918.949219 26.265625 914.925781 26.679688 C 914.40625 26.574219 913.789062 26.472656 913.898438 26.0625 C 911.730469 26.371094 908.222656 25.957031 906.878906 26.886719 C 905.539062 26.886719 902.960938 26.574219 903.679688 27.089844 C 901.101562 26.988281 901.726562 26.988281 898.734375 26.886719 C 900.078125 26.058594 894.402344 26.675781 893.476562 27.089844 C 893.984375 26.472656 892.234375 26.78125 890.273438 26.472656 C 890.273438 26.679688 890.273438 26.886719 890.273438 27.089844 C 889.347656 26.988281 889.964844 26.886719 889.964844 26.472656 C 888.625 26.371094 887.800781 26.0625 886.765625 25.957031 C 886.457031 26.164062 886.046875 26.371094 885.738281 26.472656 C 884.707031 26.472656 884.398438 26.164062 883.980469 25.855469 C 885.53125 26.265625 887.28125 25.957031 887.492188 24.617188 C 886.457031 24.515625 885.324219 24.410156 885.429688 23.792969 C 884.8125 23.792969 884.296875 23.792969 883.671875 23.792969 C 883.363281 24.308594 884.296875 24.308594 884.398438 24.617188 C 883.574219 24.410156 883.265625 24.101562 882.957031 23.792969 C 879.136719 23.894531 878.210938 24.203125 874.910156 23.277344 C 870.683594 24.824219 863.566406 23.585938 859.855469 24.515625 C 859.546875 24.203125 858.921875 24.101562 857.789062 24.203125 C 857.171875 25.03125 855.523438 25.546875 857.789062 26.0625 C 860.574219 25.546875 864.597656 24.925781 867.59375 24.617188 C 868.515625 24.71875 867.894531 24.824219 867.894531 25.234375 C 868.515625 25.234375 869.652344 25.445312 869.34375 24.925781 C 869.960938 25.03125 869.652344 25.445312 870.785156 25.234375 C 870.683594 25.445312 870.476562 25.542969 870.476562 25.753906 C 870.96875 25.84375 871.210938 25.8125 871.363281 25.742188 C 869.960938 26.503906 869.003906 27.011719 866.351562 27.195312 C 866.25 27.300781 866.351562 27.300781 866.449219 27.402344 C 865.554688 27.402344 864.660156 27.40625 863.851562 27.5 C 862.417969 27 860.671875 27.707031 859.339844 26.679688 C 858.722656 26.886719 857.480469 27.199219 858.304688 27.609375 C 855.523438 27.09375 851.496094 27.09375 850.261719 26.785156 C 848.917969 27.300781 846.859375 27.507812 846.035156 28.332031 C 845 28.4375 845.617188 27.816406 844.285156 28.023438 C 844.285156 27.507812 845.828125 27.507812 843.976562 27.507812 C 844.183594 27.40625 844.59375 27.304688 845.007812 27.199219 C 843.667969 26.789062 843.351562 28.027344 842.527344 28.335938 C 841.292969 28.4375 840.566406 27.921875 839.742188 28.335938 C 840.15625 28.128906 840.15625 27.921875 839.742188 27.714844 C 840.675781 27.507812 841.292969 28.128906 841.191406 27.507812 C 840.574219 27.507812 840.058594 27.507812 839.433594 27.507812 C 840.675781 26.992188 842.015625 26.066406 844.691406 26.273438 C 845.007812 25.960938 845.726562 25.859375 845.417969 25.34375 C 847.277344 25.34375 853.152344 25.34375 854.496094 24.207031 C 852.746094 24.519531 852.636719 23.898438 850.988281 24.414062 C 850.269531 24.414062 851.503906 24.003906 850.679688 23.796875 C 850.0625 24.3125 849.445312 23.796875 848.617188 23.796875 C 844.699219 23.898438 841.191406 24.417969 837.789062 25.238281 C 838.300781 25.960938 836.449219 25.550781 836.757812 26.167969 C 836.65625 26.066406 835.621094 24.828125 836.449219 24.621094 C 834.796875 24.828125 832.53125 24.3125 830.15625 24.828125 C 829.636719 23.898438 826.335938 24.519531 824.585938 24.519531 C 824.585938 24.3125 825.003906 24.3125 825.3125 24.3125 C 820.359375 23.796875 810.25 25.238281 802.929688 24.003906 C 802.519531 23.28125 803.753906 23.28125 804.371094 23.074219 C 803.03125 21.734375 800.351562 22.351562 798.085938 21.839844 C 794.578125 22.5625 790.867188 21.011719 786.222656 21.21875 C 786.117188 20.808594 787.566406 21.117188 787.257812 20.601562 C 786.433594 20.289062 785.5 20.808594 784.054688 20.601562 C 783.332031 21.527344 783.023438 22.148438 783.332031 22.972656 C 779.929688 24.003906 777.453125 25.445312 779.828125 27.199219 C 779.621094 29.160156 771.476562 28.746094 768.992188 28.746094 C 769.203125 28.644531 769.308594 28.4375 769.71875 28.4375 C 768.992188 27.921875 766.625 28.230469 766.933594 27.300781 C 765.082031 27.09375 765.390625 27.816406 764.148438 27.816406 C 764.359375 28.335938 765.390625 28.644531 764.148438 28.953125 C 765.699219 29.160156 767.351562 29.160156 769.101562 28.953125 C 767.867188 29.574219 770.542969 29.78125 771.886719 30.089844 C 771.785156 31.015625 771.785156 31.328125 772.917969 31.636719 C 772.503906 32.050781 771.886719 32.460938 770.960938 32.667969 C 770.851562 32.460938 770.851562 32.359375 771.058594 32.050781 C 770.851562 31.636719 769.617188 31.945312 769.828125 31.222656 C 769.308594 31.53125 768.792969 31.328125 768.792969 31.742188 C 767.449219 31.945312 766.417969 31.53125 765.082031 31.53125 C 762.605469 31.53125 760.339844 32.769531 758.171875 32.976562 C 756.621094 33.078125 755.28125 32.667969 753.628906 32.769531 C 754.046875 32.769531 752.496094 33.183594 752.078125 32.976562 C 751.777344 32.875 752.1875 32.769531 752.078125 32.460938 C 750.332031 32.253906 748.164062 32.050781 746.617188 32.460938 C 744.761719 31.53125 743.835938 33.597656 741.769531 32.460938 C 741.875 31.738281 741.5625 31.738281 741.769531 31.222656 C 740.328125 30.914062 738.777344 31.742188 738.367188 30.914062 C 737.851562 31.222656 736.820312 31.328125 736.921875 30.402344 C 735.996094 30.503906 735.996094 30.605469 735.375 30.710938 C 734.964844 29.988281 734.238281 30.605469 733.726562 30.089844 C 732.589844 32.875 727.023438 30.089844 725.679688 32.460938 C 726.300781 32.460938 726.300781 32.566406 727.640625 32.976562 C 727.640625 34.214844 725.992188 34.113281 724.957031 34.421875 C 724.648438 34.421875 724.75 34.007812 724.75 33.800781 C 724.234375 34.523438 723.203125 33.90625 722.070312 34.007812 C 718.769531 34.214844 713.714844 34.628906 710.105469 35.144531 C 709.28125 35.351562 708.457031 35.246094 707.835938 35.351562 C 707.527344 35.351562 707.425781 35.042969 707.320312 35.042969 C 706.703125 35.042969 704.847656 35.453125 703.917969 35.351562 C 703.195312 36.074219 701.957031 37.3125 699.691406 37.207031 C 698.554688 36.074219 697.730469 35.96875 696.285156 35.96875 C 697.007812 35.867188 696.699219 34.9375 697.316406 35.453125 C 697.9375 35.453125 697.007812 34.730469 697.523438 34.835938 C 697.214844 34.113281 696.492188 34.835938 696.492188 33.90625 C 694.839844 33.90625 694.328125 34.011719 693.089844 33.289062 C 692.984375 33.496094 692.367188 34.011719 692.882812 34.214844 C 692.367188 34.113281 692.164062 35.144531 691.128906 35.042969 C 691.335938 35.554688 691.128906 35.453125 691.335938 35.867188 C 691.644531 35.660156 691.855469 35.351562 692.367188 35.246094 C 692.675781 35.351562 692.675781 35.761719 692.675781 36.171875 C 692.367188 36.585938 691.027344 36.070312 690.71875 36.484375 C 690.613281 35.96875 691.027344 36.070312 690.925781 35.660156 C 688.34375 35.761719 682.984375 37.207031 680.609375 35.039062 C 679.269531 34.9375 678.238281 34.523438 677.101562 34.113281 C 675.042969 34.523438 674.320312 35.039062 672.152344 34.628906 C 672.152344 34.421875 672.257812 34.320312 672.359375 34.320312 C 671.226562 34.835938 670.398438 33.597656 668.234375 33.804688 C 668.027344 33.699219 667.410156 33.183594 667.71875 33.183594 C 666.894531 32.667969 665.242188 31.945312 664.832031 33.390625 C 663.800781 33.492188 663.59375 33.390625 662.5625 33.699219 C 662.355469 32.875 662.976562 32.875 663.078125 32.257812 C 663.492188 32.5625 663.902344 32.046875 664.109375 32.5625 C 664.523438 32.5625 664.214844 31.945312 664.316406 31.738281 C 661.839844 32.046875 659.675781 31.636719 657.199219 31.636719 C 656.476562 31.84375 655.238281 32.152344 654.3125 32.152344 C 654.207031 32.152344 654.003906 31.84375 654.003906 31.84375 C 652.765625 32.050781 652.25 32.769531 650.597656 33.082031 C 648.742188 33.390625 646.679688 33.390625 644.925781 34.316406 C 644.824219 34.214844 644.824219 34.214844 644.71875 34.214844 L 644.71875 32.667969 C 643.789062 32.769531 642.761719 32.871094 641.730469 32.976562 C 641.109375 32.976562 641.523438 32.460938 641.007812 32.355469 C 639.976562 32.871094 638.636719 32.769531 637.292969 32.667969 C 637.191406 32.046875 635.128906 31.941406 634.304688 31.21875 C 634.199219 31.21875 634.199219 31.21875 634.097656 31.21875 C 633.789062 30.707031 634.921875 30.914062 635.542969 30.914062 C 635.542969 30.5 636.160156 30.601562 635.542969 30.292969 C 636.675781 30.191406 637.191406 30.398438 636.984375 30.914062 C 639.5625 30.914062 641.421875 31.117188 643.6875 31.117188 C 643.6875 30.8125 643.6875 30.605469 643.6875 30.292969 C 639.5625 29.882812 634.511719 30.089844 632.859375 29.160156 C 632.136719 29.058594 632.34375 29.46875 631.828125 29.46875 C 629.972656 28.847656 628.21875 28.847656 626.570312 28.023438 C 625.332031 28.335938 622.753906 28.023438 622.339844 28.644531 C 621.101562 28.746094 621.929688 27.921875 620.585938 28.128906 C 620.382812 28.4375 620.792969 28.539062 620.894531 28.746094 C 618.320312 28.644531 615.945312 29.46875 611.410156 29.261719 C 609.863281 28.4375 604.703125 28.335938 602.640625 28.746094 C 601.609375 28.746094 601.199219 28.4375 600.886719 28.128906 C 597.382812 28.4375 595.9375 27.40625 597.074219 26.273438 C 593.671875 26.066406 591.296875 27.304688 588.308594 26.789062 C 588.308594 26.480469 588.308594 26.167969 588.308594 25.859375 C 586.863281 26.167969 585.9375 25.757812 584.078125 25.859375 C 583.769531 26.066406 583.5625 26.375 583.046875 26.480469 C 579.644531 25.960938 570.980469 26.066406 564.484375 25.960938 C 559.84375 25.859375 556.027344 26.6875 553.652344 27.511719 C 553.863281 28.335938 553.550781 28.644531 554.375 29.058594 C 553.035156 29.160156 551.28125 28.953125 550.148438 29.574219 C 549.734375 29.46875 549.941406 29.261719 549.839844 29.058594 C 545.300781 29.882812 544.578125 27.40625 540.351562 27.820312 C 541.589844 26.996094 537.773438 27.925781 537.566406 26.996094 C 533.542969 27.613281 528.90625 27.40625 524.261719 27.304688 C 523.027344 26.171875 521.890625 24.933594 522.304688 23.386719 C 521.582031 22.664062 520.242188 23.179688 519.3125 22.5625 C 519.207031 22.148438 520.136719 22.5625 519.828125 22.046875 C 519.207031 22.148438 518.382812 21.117188 517.660156 20.808594 C 516.21875 21.21875 515.1875 21.21875 514.15625 20.601562 C 510.957031 20.910156 509.101562 22.871094 506.109375 23.59375 C 505.699219 23.59375 506.316406 23.285156 506.109375 22.972656 C 503.738281 23.488281 501.46875 23.386719 499.921875 24.109375 C 499.40625 23.386719 498.789062 24.519531 498.171875 24.625 C 496.933594 23.800781 494.871094 24.417969 494.042969 23.800781 C 493.117188 24.519531 491.878906 23.488281 491.363281 24.625 C 491.261719 24.003906 490.433594 24.109375 489.714844 24.109375 C 489.917969 25.347656 487.960938 23.59375 487.960938 24.726562 C 487.648438 23.800781 486.414062 24.726562 486.308594 24.210938 C 485.382812 24.726562 483.113281 23.59375 482.390625 24.519531 C 481.875 24.417969 480.84375 23.902344 480.738281 24.726562 C 480.121094 24.726562 480.328125 24.109375 479.707031 24.210938 C 478.675781 24.625 477.851562 24.726562 476.511719 24.519531 C 476.203125 24.625 476.511719 24.625 476.511719 24.828125 C 475.789062 24.519531 475.6875 25.035156 474.964844 25.035156 C 474.652344 25.035156 474.859375 24.519531 474.652344 24.417969 C 473.726562 24.726562 473.417969 24.519531 472.695312 24.933594 C 471.25 24.105469 469.703125 25.34375 468.46875 24.726562 C 467.949219 24.726562 467.847656 25.035156 467.539062 25.242188 C 467.332031 25.136719 467.433594 25.035156 467.539062 25.035156 C 466.09375 24.3125 464.238281 25.035156 462.585938 25.035156 C 461.558594 24.929688 460.628906 24.519531 459.597656 24.519531 C 458.359375 24.621094 456.605469 25.242188 455.371094 25.34375 C 454.542969 25.445312 453.511719 25.136719 452.378906 25.035156 C 451.347656 24.929688 450.417969 25.652344 449.488281 25.652344 C 449.078125 25.652344 448.046875 25.445312 447.222656 25.445312 C 446.292969 25.445312 445.570312 25.445312 445.261719 24.929688 C 444.4375 26.273438 442.371094 24.3125 441.859375 25.550781 C 441.03125 25.757812 440.929688 25.242188 440.414062 25.242188 C 440.414062 25.550781 440.207031 25.550781 440.207031 25.757812 C 440.105469 25.449219 439.589844 25.449219 438.972656 25.449219 C 439.175781 26.066406 438.558594 25.859375 438.660156 26.375 C 438.453125 26.273438 438.351562 26.066406 438.144531 26.066406 C 438.351562 25.757812 438.25 25.449219 438.867188 25.550781 C 438.765625 25.34375 438.457031 25.34375 438.558594 25.035156 C 436.808594 26.6875 434.742188 25.550781 433.710938 25.242188 C 431.238281 25.550781 429.382812 25.964844 426.289062 25.242188 C 426.289062 25.550781 426.078125 25.550781 426.078125 25.757812 C 424.121094 25.757812 421.335938 25.550781 418.863281 26.066406 C 418.242188 26.171875 417.625 26.171875 417.003906 26.273438 C 416.902344 26.171875 416.902344 25.964844 416.699219 25.863281 C 416.285156 26.070312 415.148438 25.757812 415.253906 26.480469 C 413.191406 26.378906 409.066406 25.863281 406.898438 26.480469 C 406.796875 26.480469 406.695312 26.480469 406.589844 26.480469 C 401.949219 25.964844 397.308594 25.964844 393.285156 26.6875 C 392.5625 25.863281 391.429688 26.480469 390.398438 26.070312 C 390.398438 26.277344 390.398438 26.378906 390.398438 26.585938 C 388.4375 26.480469 386.476562 26.480469 385.238281 26.070312 C 385.136719 26.171875 385.136719 26.171875 385.035156 26.277344 C 384.929688 26.171875 384.828125 26.171875 384.621094 26.171875 C 384.3125 26.378906 383.898438 26.585938 383.589844 26.6875 C 382.558594 26.6875 382.25 26.378906 381.835938 26.070312 C 383.382812 26.480469 385.136719 26.171875 385.34375 24.832031 C 384.3125 24.730469 383.175781 24.625 383.28125 24.007812 C 382.664062 24.007812 382.144531 24.007812 381.527344 24.007812 C 381.21875 24.523438 382.148438 24.523438 382.25 24.832031 C 381.425781 24.625 381.113281 24.316406 380.804688 24.007812 C 376.988281 24.113281 376.0625 24.421875 372.761719 23.492188 C 368.535156 25.039062 361.417969 23.800781 357.703125 24.730469 C 357.394531 24.421875 356.777344 24.316406 355.640625 24.421875 C 355.023438 25.246094 353.371094 25.761719 355.640625 26.277344 C 358.425781 25.761719 362.449219 25.140625 365.4375 24.832031 C 366.367188 24.9375 365.746094 25.039062 365.746094 25.453125 C 366.367188 25.453125 367.5 25.660156 367.191406 25.144531 C 367.8125 25.246094 367.5 25.660156 368.636719 25.453125 C 368.535156 25.660156 368.324219 25.761719 368.324219 25.96875 C 368.816406 26.054688 369.054688 26.027344 369.210938 25.960938 C 367.804688 26.71875 366.855469 27.230469 364.203125 27.410156 C 364.203125 27.515625 364.203125 27.515625 364.203125 27.515625 C 363.789062 27.515625 363.480469 27.515625 363.070312 27.515625 C 362.65625 27.617188 362.140625 27.722656 361.519531 27.824219 C 361.625 27.71875 361.625 27.71875 361.726562 27.71875 C 360.285156 27.207031 358.53125 27.925781 357.1875 26.894531 C 356.566406 27.101562 355.332031 27.410156 356.15625 27.824219 C 353.359375 27.308594 349.335938 27.308594 348.097656 26.996094 C 346.757812 27.511719 344.695312 27.71875 343.871094 28.542969 C 342.839844 28.648438 343.457031 28.027344 342.121094 28.234375 C 342.121094 27.71875 343.664062 27.71875 341.808594 27.71875 C 342.015625 27.617188 342.429688 27.515625 342.84375 27.410156 C 341.5 27 341.191406 28.238281 340.367188 28.546875 C 339.128906 28.652344 338.40625 28.136719 337.582031 28.546875 C 337.996094 28.339844 337.996094 28.136719 337.582031 27.929688 C 338.511719 27.71875 339.128906 28.339844 339.027344 27.71875 C 338.40625 27.71875 337.890625 27.71875 337.273438 27.71875 C 338.511719 27.207031 339.851562 26.277344 342.53125 26.484375 C 342.84375 26.171875 343.5625 26.070312 343.253906 25.554688 C 345.113281 25.554688 350.988281 25.554688 352.332031 24.421875 C 350.578125 24.730469 350.476562 24.109375 348.824219 24.625 C 348.101562 24.625 349.339844 24.214844 348.515625 24.007812 C 347.898438 24.523438 347.277344 24.007812 346.453125 24.007812 C 342.535156 24.109375 339.027344 24.628906 335.625 25.453125 C 336.140625 26.171875 334.285156 25.761719 334.589844 26.378906 C 334.488281 26.277344 333.457031 25.039062 334.285156 24.832031 C 332.632812 25.039062 330.363281 24.523438 327.992188 25.039062 C 327.476562 24.113281 324.175781 24.730469 322.421875 24.730469 C 322.421875 24.523438 322.835938 24.523438 323.144531 24.523438 C 318.195312 24.007812 308.089844 25.453125 300.765625 24.214844 C 300.351562 23.492188 301.589844 23.492188 302.210938 23.289062 C 300.871094 21.945312 298.1875 22.5625 295.917969 22.050781 C 292.414062 22.773438 288.699219 21.222656 284.058594 21.429688 C 283.957031 21.019531 285.402344 21.328125 285.089844 20.8125 C 284.265625 20.503906 283.335938 21.019531 281.894531 20.8125 C 281.171875 21.738281 280.863281 22.359375 281.171875 23.183594 C 277.769531 24.214844 275.292969 25.65625 277.664062 27.410156 C 277.457031 29.371094 269.308594 28.957031 266.835938 28.957031 C 267.042969 28.855469 267.144531 28.648438 267.558594 28.648438 C 266.835938 28.132812 264.464844 28.441406 264.773438 27.515625 C 262.917969 27.308594 263.226562 28.03125 261.988281 28.03125 C 262.195312 28.546875 263.226562 28.855469 261.988281 29.164062 C 263.535156 29.371094 265.183594 29.371094 266.9375 29.164062 C 265.699219 29.785156 268.382812 29.992188 269.722656 30.300781 C 269.617188 31.226562 269.617188 31.539062 270.753906 31.847656 C 270.414062 32.1875 269.921875 32.523438 269.238281 32.746094 C 269.394531 32.824219 269.539062 32.902344 269.617188 32.984375 L 269.511719 32.984375 C 269.4375 32.90625 269.316406 32.832031 269.210938 32.753906 C 269.074219 32.800781 268.945312 32.84375 268.792969 32.878906 C 268.691406 32.671875 268.691406 32.570312 268.898438 32.261719 C 268.691406 31.847656 267.453125 32.15625 267.660156 31.4375 C 267.144531 31.746094 266.628906 31.539062 266.628906 31.953125 C 265.289062 32.15625 264.253906 31.746094 262.914062 31.746094 C 261.058594 31.746094 259.410156 32.363281 257.757812 32.777344 C 257.140625 32.675781 256.625 32.46875 256.109375 32.054688 C 254.046875 32.363281 250.847656 31.847656 249.507812 32.570312 C 248.683594 32.464844 247.652344 32.363281 246.722656 32.363281 C 246.515625 32.261719 246.414062 32.15625 246.308594 32.054688 C 243.9375 32.464844 241.566406 32.054688 239.605469 32.15625 C 239.503906 31.847656 239.398438 31.640625 239.605469 31.332031 C 238.160156 31.023438 236.613281 31.847656 236.203125 31.023438 C 235.6875 31.332031 234.65625 31.4375 234.757812 30.507812 C 233.726562 30.613281 233.726562 30.714844 233.109375 30.816406 C 232.695312 30.097656 231.972656 30.714844 231.457031 30.199219 C 231.148438 31.230469 230.011719 31.539062 228.777344 31.539062 C 228.777344 31.539062 228.777344 31.539062 228.671875 31.539062 C 226.816406 31.644531 224.753906 31.230469 223.824219 32.261719 C 218.464844 32.261719 213.304688 32.054688 207.429688 32.675781 C 206.707031 32.570312 207.945312 32.363281 207.117188 32.160156 C 204.746094 32.160156 202.683594 31.851562 200.828125 32.675781 C 201.136719 32.363281 198.558594 32.160156 198.351562 32.675781 C 197.117188 31.851562 194.847656 32.570312 192.785156 32.160156 C 192.785156 32.363281 192.785156 32.570312 192.785156 32.777344 C 189.585938 32.054688 185.5625 32.054688 181.953125 31.847656 C 181.851562 32.160156 182.367188 32.160156 182.265625 32.46875 C 179.6875 31.953125 171.746094 31.851562 171.023438 32.675781 C 170.09375 32.675781 170.09375 32.261719 169.578125 32.054688 C 168.132812 31.851562 168.648438 32.46875 168.132812 32.675781 C 167.722656 32.570312 167.929688 32.46875 168.132812 32.46875 C 166.277344 32.261719 164.214844 32.160156 162.152344 32.160156 C 162.152344 31.953125 162.050781 31.644531 162.152344 31.539062 C 159.675781 31.847656 157.511719 31.4375 155.035156 31.4375 C 154.3125 31.644531 153.078125 31.953125 152.148438 31.953125 C 152.046875 31.953125 151.839844 31.644531 151.839844 31.644531 C 150.601562 31.851562 150.085938 32.570312 148.433594 32.882812 C 146.578125 33.191406 144.515625 33.191406 142.761719 34.117188 C 142.246094 34.015625 141.730469 33.910156 141.835938 33.191406 C 139.667969 32.984375 137.195312 33.085938 134.925781 32.984375 C 135.75 31.746094 133.066406 31.746094 132.035156 30.921875 C 131.933594 30.921875 131.933594 30.921875 131.832031 30.921875 C 131.808594 30.882812 131.808594 30.855469 131.800781 30.824219 C 131.007812 30.859375 130.308594 30.972656 129.765625 30.609375 C 130.308594 30.609375 130.945312 30.691406 131.785156 30.78125 C 131.769531 30.453125 132.722656 30.613281 133.273438 30.613281 C 133.273438 30.199219 133.894531 30.300781 133.273438 29.992188 C 134.410156 29.890625 134.925781 30.097656 134.71875 30.613281 C 137.296875 30.613281 139.152344 30.820312 141.421875 30.820312 C 141.421875 30.511719 141.421875 30.300781 141.421875 29.996094 C 137.296875 29.582031 132.246094 29.789062 130.59375 28.859375 C 129.871094 28.757812 130.078125 29.167969 129.5625 29.167969 C 127.707031 28.546875 125.953125 28.546875 124.300781 27.722656 C 123.066406 28.03125 120.488281 27.722656 120.074219 28.34375 C 118.835938 28.445312 119.664062 27.621094 118.324219 27.828125 C 118.117188 28.136719 118.527344 28.238281 118.632812 28.445312 C 116.054688 28.34375 113.679688 29.167969 109.144531 28.960938 C 107.59375 28.136719 102.4375 28.035156 100.375 28.445312 C 99.347656 28.445312 98.933594 28.136719 98.625 27.828125 C 95.117188 28.136719 93.671875 27.105469 94.808594 25.972656 C 91.402344 25.765625 89.03125 27.003906 86.039062 26.488281 C 86.039062 26.179688 86.039062 25.867188 86.039062 25.558594 C 84.597656 25.867188 83.671875 25.457031 81.8125 25.558594 C 81.503906 25.765625 81.296875 26.074219 80.78125 26.179688 C 77.378906 25.660156 68.714844 25.765625 62.21875 25.660156 C 57.574219 25.558594 53.761719 26.382812 51.386719 27.210938 C 51.59375 28.035156 51.285156 28.34375 52.109375 28.757812 C 50.769531 28.859375 49.015625 28.652344 47.882812 29.273438 C 47.472656 29.167969 47.675781 28.960938 47.574219 28.757812 C 43.035156 29.582031 42.3125 27.105469 38.085938 27.519531 C 39.324219 26.695312 35.507812 27.625 35.300781 26.695312 C 27.355469 27.828125 16.941406 26.074219 8.378906 27.3125 C 7.761719 28.546875 6.007812 29.269531 3.839844 29.785156 C 3.121094 29.683594 4.253906 29.476562 3.53125 29.269531 C 0.746094 28.859375 -1.625 29.476562 -3.480469 28.652344 C -6.472656 28.652344 -12.867188 30.199219 -14.722656 28.859375 C -16.269531 28.960938 -17.816406 28.859375 -19.46875 28.753906 L -19.46875 30.921875 C -19.15625 31.023438 -18.847656 31.125 -18.539062 31.230469 C -17.199219 31.230469 -16.0625 30.714844 -16.785156 30.40625 C -15.753906 30.40625 -15.03125 30.613281 -14.722656 31.023438 C -13.382812 30.714844 -13.484375 30.820312 -13.28125 31.230469 C -12.453125 31.230469 -10.90625 30.097656 -10.804688 31.230469 C -10.082031 30.921875 -8.226562 31.023438 -7.605469 30.613281 C -6.472656 30.613281 -7.195312 31.644531 -6.164062 31.128906 C -6.265625 32.265625 -9.464844 31.851562 -9.359375 32.570312 C -10.804688 32.777344 -13.691406 32.160156 -12.144531 32.054688 C -13.175781 31.4375 -16.476562 32.984375 -16.683594 31.851562 C -18.023438 31.953125 -19.984375 32.574219 -18.4375 32.984375 C -18.746094 33.085938 -19.054688 33.191406 -19.363281 33.191406 L -19.363281 37.625 C -18.230469 37.730469 -16.890625 37.730469 -15.652344 37.832031 C -15.839844 38.019531 -15.851562 38.039062 -15.773438 38.121094 L -20.085938 38.121094 L -20.085938 97.628906 L 1460.742188 97.628906 L 1460.742188 30.222656 C 1460.292969 30.152344 1459.867188 30.050781 1459.476562 29.875 C 1457.617188 29.875 1454.214844 30.496094 1451.640625 30.597656 C 1451.640625 30.1875 1451.53125 29.875 1451.109375 29.867188 Z M 9.203125 31.230469 C 8.6875 31.230469 9.820312 31.953125 8.171875 31.851562 C 8.070312 31.4375 5.796875 31.4375 4.972656 30.921875 C 6.007812 30.613281 7.140625 30.820312 7.757812 30.613281 C 7.964844 31.023438 7.035156 30.921875 7.035156 31.230469 C 7.449219 31.230469 7.449219 31.4375 7.757812 31.4375 C 8.171875 31.4375 8.996094 30.921875 9.203125 31.230469 Z M 42.101562 37.933594 L 42 38.035156 L 39.628906 38.035156 C 39.9375 37.933594 40.140625 37.832031 40.347656 37.625 C 40.246094 38.347656 41.691406 37.625 42.101562 37.933594 Z M 67.988281 27.621094 C 67.78125 28.757812 63.65625 29.167969 62.417969 28.136719 C 62.933594 28.136719 62.730469 27.726562 62.730469 27.519531 C 64.585938 27.210938 66.855469 26.796875 67.988281 27.621094 Z M 105.734375 32.261719 C 105.632812 33.085938 104.910156 33.5 106.046875 33.808594 C 104.703125 34.015625 105.015625 33.5 103.980469 33.5 C 102.847656 34.429688 98 34.632812 95.9375 34.121094 C 95.113281 32.261719 102.640625 30.820312 105.734375 32.261719 Z M 113.058594 32.675781 C 113.058594 32.882812 112.953125 33.085938 112.953125 33.292969 C 111.921875 33.914062 110.683594 34.324219 108.519531 34.324219 C 108.726562 33.5 108.210938 33.914062 107.488281 33.707031 C 108.210938 32.882812 106.765625 32.675781 106.042969 32.160156 C 107.589844 32.261719 108.003906 31.851562 109.550781 31.953125 C 109.757812 32.160156 109.964844 32.363281 110.273438 32.46875 C 110.375 32.261719 110.683594 32.160156 111.304688 32.160156 C 111.199219 32.882812 112.128906 32.261719 112.75 32.367188 C 112.75 32.570312 112.851562 32.675781 113.058594 32.675781 Z M 161.945312 31.953125 C 161.632812 31.953125 161.324219 31.953125 161.015625 31.953125 L 161.015625 31.851562 C 161.429688 32.054688 161.738281 31.746094 161.945312 31.953125 Z M 316.75 27.929688 C 315.613281 27.828125 314.996094 28.136719 315.714844 28.445312 C 312.828125 28.445312 310.558594 29.066406 308.394531 28.960938 C 308.808594 29.167969 308.703125 29.476562 308.703125 29.890625 C 307.054688 29.785156 308.1875 30.507812 307.671875 30.507812 C 307.464844 30.300781 307.257812 30.613281 306.949219 30.714844 C 306.332031 30.199219 305.816406 30.613281 304.886719 30.714844 C 304.164062 30.300781 303.960938 29.785156 302.824219 29.582031 C 303.753906 29.582031 303.960938 29.785156 304.269531 29.375 C 303.445312 29.375 303.546875 29.0625 302.515625 29.164062 C 300.96875 30.199219 298.699219 28.855469 297.566406 29.992188 C 297.773438 30.195312 297.976562 30.402344 297.875 30.816406 C 293.953125 30.609375 288.488281 30.917969 284.878906 31.433594 C 285.910156 31.019531 284.15625 31.019531 284.15625 30.917969 C 284.570312 30.917969 284.363281 30.710938 284.15625 30.609375 C 287.148438 30.09375 288.28125 28.136719 291.890625 28.546875 C 291.683594 28.03125 297.253906 28.136719 298.183594 28.753906 C 298.492188 28.34375 299.730469 27.621094 300.246094 27.929688 C 299.9375 27.929688 299.832031 28.238281 300.246094 28.238281 C 301.585938 28.238281 302.101562 27.929688 302.71875 27.617188 C 302 27.410156 301.070312 27.722656 300.96875 27 C 302.925781 26.589844 304.265625 26.898438 306.226562 26.484375 C 306.332031 27.414062 305.609375 26.691406 305.195312 27.617188 C 307.566406 27.3125 309.527344 27.929688 311.484375 26.796875 C 312.3125 26.796875 312.207031 27.105469 313.238281 27 C 313.238281 27.210938 313.03125 27.621094 313.546875 27.621094 C 314.167969 27.519531 313.546875 26.796875 314.269531 26.796875 C 314.785156 27.210938 316.125 27.417969 316.023438 27.726562 C 316.335938 27.726562 316.746094 27.726562 316.75 27.929688 Z M 329.640625 29.269531 C 330.773438 29.375 331.082031 29.167969 331.390625 29.476562 C 331.1875 29.476562 330.980469 29.582031 331.082031 29.789062 C 331.289062 29.789062 331.496094 29.996094 331.082031 29.996094 C 330.980469 29.683594 330.15625 29.789062 329.640625 29.789062 C 329.640625 29.582031 329.640625 29.476562 329.640625 29.269531 Z M 329.640625 27.3125 C 330.464844 27.3125 331.1875 27.003906 331.390625 27.519531 C 330.671875 27.519531 330.773438 27.929688 329.949219 27.929688 C 330.050781 27.621094 329.640625 27.621094 329.640625 27.3125 Z M 327.265625 29.992188 C 328.195312 30.097656 327.578125 29.375 328.300781 29.375 C 327.988281 29.890625 329.742188 29.582031 329.433594 30.097656 C 329.125 30.40625 328.917969 30.613281 327.988281 30.613281 C 328.402344 30.097656 327.371094 30.199219 327.265625 29.992188 Z M 324.484375 26.382812 C 324.894531 26.382812 324.996094 26.589844 325.207031 26.691406 C 323.761719 26.691406 323.140625 26.691406 323.761719 27.210938 C 322.109375 27.414062 322.9375 26.589844 322.316406 26.382812 C 323.140625 26.382812 323.96875 26.28125 324.378906 26.074219 C 324.484375 25.972656 324.484375 25.972656 324.792969 25.867188 C 324.894531 26.175781 324.691406 26.28125 324.484375 26.382812 Z M 330.875 26.488281 C 331.289062 26.488281 331.699219 26.488281 331.597656 26.796875 C 329.640625 26.796875 328.609375 27.105469 326.648438 27.414062 C 326.027344 27.105469 325.308594 26.796875 325.203125 26.179688 C 326.234375 25.871094 327.679688 25.25 328.710938 25.871094 C 327.78125 25.355469 331.390625 24.839844 332.527344 25.25 C 331.804688 25.355469 332.628906 25.972656 333.558594 25.765625 C 333.972656 26.898438 331.390625 26.382812 330.875 26.488281 Z M 369.761719 25.660156 C 369.605469 25.738281 369.460938 25.820312 369.320312 25.894531 C 369.445312 25.808594 369.53125 25.703125 369.761719 25.660156 Z M 380.378906 25.867188 C 379.964844 25.867188 379.65625 26.175781 379.347656 25.867188 C 380.585938 25.660156 379.039062 25.558594 379.039062 25.351562 C 379.554688 25.351562 379.660156 25.148438 380.070312 25.042969 C 379.96875 25.351562 380.175781 25.660156 380.378906 25.867188 Z M 474.230469 33.707031 C 473.511719 33.605469 474.4375 34.015625 473.921875 34.015625 C 473.820312 33.707031 473.613281 34.53125 473.199219 34.53125 C 473.40625 34.632812 473.40625 34.839844 473.40625 35.046875 C 473.820312 34.632812 473.71875 35.25 474.027344 35.355469 C 473.820312 35.460938 473.71875 35.460938 473.511719 35.5625 C 472.996094 35.460938 472.480469 35.460938 472.273438 35.664062 L 472.273438 34.941406 C 472.480469 35.046875 472.6875 35.046875 472.996094 34.632812 C 472.996094 34.324219 472.6875 34.222656 472.6875 33.808594 C 473.304688 33.808594 473.820312 33.5 474.230469 33.707031 Z M 474.335938 34.53125 C 474.644531 34.738281 475.367188 34.738281 475.882812 34.839844 C 475.472656 34.839844 475.160156 34.945312 474.75 34.945312 C 474.644531 35.046875 474.542969 35.152344 474.335938 35.253906 C 474.335938 34.839844 474.027344 34.738281 474.335938 34.53125 Z M 476.089844 33.808594 C 475.78125 33.914062 475.058594 33.707031 475.058594 34.015625 C 475.160156 34.015625 475.265625 34.222656 475.058594 34.222656 C 475.058594 33.914062 474.4375 34.015625 474.542969 33.707031 C 475.367188 33.707031 475.675781 33.398438 476.089844 33.808594 Z M 570.867188 27.519531 C 570.660156 28.652344 566.539062 29.066406 565.300781 28.035156 C 565.816406 28.035156 565.609375 27.621094 565.609375 27.414062 C 567.464844 27.105469 569.734375 26.691406 570.867188 27.519531 Z M 605.109375 31.542969 C 604.386719 31.644531 603.457031 31.851562 602.632812 32.054688 C 602.425781 31.953125 602.324219 31.953125 602.117188 31.851562 C 603.148438 31.644531 604.179688 31.539062 605.109375 31.542969 Z M 632.644531 30.613281 C 633.265625 30.613281 633.984375 30.613281 635.015625 30.820312 C 634.089844 30.820312 633.265625 31.023438 632.644531 30.613281 Z M 695.765625 35.871094 C 695.453125 35.871094 694.320312 36.285156 694.320312 35.664062 C 694.628906 35.359375 695.453125 35.664062 695.765625 35.871094 Z M 711.953125 37.214844 C 711.335938 37.109375 711.027344 37.421875 711.4375 37.730469 C 710.71875 37.625 711.027344 37.933594 710.925781 38.140625 L 710.40625 38.140625 C 710.304688 38.035156 710.203125 38.035156 710.101562 38.035156 C 710.410156 37.109375 709.378906 37.417969 709.585938 36.492188 C 710.71875 36.695312 711.75 36.179688 711.953125 37.214844 Z M 732.273438 35.5625 C 730.519531 35.972656 728.148438 36.800781 727.425781 35.253906 C 728.972656 34.429688 731.65625 34.53125 732.273438 35.5625 Z M 772.496094 32.878906 C 772.394531 32.878906 772.394531 32.878906 772.394531 32.984375 C 772.394531 32.878906 772.1875 32.777344 771.976562 32.570312 C 772.1875 32.675781 772.394531 32.777344 772.496094 32.878906 Z M 786.316406 34.429688 C 785.074219 35.871094 781.882812 36.800781 777.347656 36.492188 C 776.003906 35.871094 777.03125 34.839844 777.136719 33.914062 C 779.921875 33.5 783.941406 34.015625 786.316406 34.429688 Z M 819.625 27.828125 C 818.492188 27.722656 817.875 28.035156 818.601562 28.34375 C 815.707031 28.34375 813.441406 28.960938 811.273438 28.855469 C 811.691406 29.0625 811.582031 29.375 811.582031 29.785156 C 809.933594 29.683594 811.066406 30.40625 810.550781 30.40625 C 810.347656 30.199219 810.140625 30.507812 809.832031 30.609375 C 809.214844 30.097656 808.699219 30.507812 807.765625 30.609375 C 807.046875 30.199219 806.839844 29.683594 805.707031 29.476562 C 806.632812 29.476562 806.839844 29.683594 807.148438 29.269531 C 806.324219 29.269531 806.429688 28.960938 805.398438 29.0625 C 803.847656 30.09375 801.578125 28.753906 800.445312 29.886719 C 800.753906 29.992188 800.863281 30.195312 800.863281 30.507812 C 800.445312 30.507812 800.035156 30.609375 799.621094 30.609375 C 797.144531 30.609375 794.152344 30.710938 791.574219 30.917969 C 791.367188 30.816406 791.167969 30.710938 790.960938 30.609375 C 789.71875 30.609375 788.484375 30.609375 787.140625 30.507812 C 790.035156 29.992188 791.167969 28.136719 794.777344 28.441406 C 794.570312 27.929688 800.136719 28.03125 801.0625 28.652344 C 801.371094 28.238281 802.613281 27.515625 803.128906 27.824219 C 802.820312 27.824219 802.714844 28.136719 803.128906 28.136719 C 804.464844 28.136719 804.980469 27.824219 805.605469 27.515625 C 804.878906 27.308594 803.953125 27.617188 803.847656 26.898438 C 805.804688 26.484375 807.148438 26.792969 809.105469 26.382812 C 809.214844 27.308594 808.488281 26.589844 808.082031 27.515625 C 810.449219 27.207031 812.40625 27.828125 814.367188 26.691406 C 815.191406 26.691406 815.09375 27 816.117188 26.898438 C 816.117188 27.105469 815.917969 27.519531 816.425781 27.519531 C 817.050781 27.414062 816.425781 26.691406 817.152344 26.691406 C 817.667969 27.105469 819.011719 27.3125 818.902344 27.621094 C 819.21875 27.621094 819.625 27.621094 819.625 27.828125 Z M 832.621094 27.210938 C 833.449219 27.210938 834.171875 26.902344 834.375 27.414062 C 833.65625 27.519531 833.65625 27.828125 832.929688 27.828125 C 833.039062 27.519531 832.621094 27.519531 832.621094 27.210938 Z M 827.464844 26.382812 C 827.878906 26.382812 827.980469 26.589844 828.1875 26.691406 C 826.746094 26.691406 826.128906 26.691406 826.746094 27.210938 C 825.09375 27.414062 825.921875 26.589844 825.304688 26.382812 C 826.121094 26.382812 826.945312 26.28125 827.363281 26.074219 C 827.363281 25.972656 827.363281 25.867188 827.773438 25.867188 C 827.878906 26.175781 827.671875 26.28125 827.464844 26.382812 Z M 833.757812 26.488281 C 834.164062 26.488281 834.582031 26.488281 834.480469 26.796875 C 832.523438 26.796875 831.488281 27.105469 829.53125 27.414062 C 828.914062 27.105469 828.1875 26.796875 828.078125 26.179688 C 829.113281 25.871094 830.554688 25.25 831.589844 25.871094 C 830.664062 25.355469 834.273438 24.839844 835.40625 25.25 C 834.683594 25.355469 835.507812 25.972656 836.441406 25.765625 C 836.847656 26.796875 834.273438 26.28125 833.757812 26.488281 Z M 871.917969 25.449219 C 871.765625 25.53125 871.617188 25.609375 871.472656 25.6875 C 871.601562 25.601562 871.6875 25.496094 871.917969 25.449219 Z M 883.265625 25.765625 C 882.847656 25.765625 882.539062 26.074219 882.230469 25.765625 C 883.464844 25.558594 881.921875 25.457031 881.921875 25.246094 C 882.429688 25.246094 882.539062 25.042969 882.957031 24.941406 C 882.847656 25.351562 883.054688 25.558594 883.265625 25.765625 Z M 896.460938 27.828125 C 896.261719 27.828125 896.050781 27.929688 895.84375 27.929688 C 895.425781 27.519531 894.808594 27.621094 894.609375 27.3125 C 895.535156 27.3125 896.050781 27.519531 896.460938 27.828125 Z M 944.726562 30.097656 C 943.183594 30.304688 942.667969 30.820312 940.5 30.613281 C 939.984375 30.09375 940.707031 29.992188 940.191406 29.683594 C 941.222656 29.578125 940.917969 30.09375 941.941406 29.992188 C 941.433594 29.371094 943.082031 29.890625 942.976562 29.476562 C 942.359375 29.371094 942.875 29.269531 943.285156 29.476562 C 943.902344 29.167969 942.976562 28.34375 943.59375 28.652344 C 944.316406 29.167969 944.726562 28.34375 945.351562 28.34375 C 945.449219 28.652344 945.859375 28.34375 946.167969 28.550781 C 944.933594 28.960938 945.242188 29.269531 944.726562 30.097656 Z M 1009.703125 32.261719 C 1009.1875 32.261719 1010.320312 32.984375 1008.671875 32.882812 C 1008.570312 32.46875 1006.296875 32.46875 1005.472656 31.953125 C 1006.503906 31.644531 1007.636719 31.851562 1008.261719 31.644531 C 1008.464844 32.054688 1007.539062 31.953125 1007.539062 32.261719 C 1007.945312 32.261719 1007.945312 32.46875 1008.261719 32.46875 C 1008.671875 32.46875 1009.496094 31.953125 1009.703125 32.261719 Z M 1068.492188 28.757812 C 1068.382812 28.960938 1068.28125 29.167969 1067.972656 29.273438 C 1067.875 29.273438 1067.765625 29.273438 1067.664062 29.273438 C 1067.765625 29.273438 1067.765625 29.375 1067.765625 29.375 C 1066.53125 29.890625 1063.847656 29.890625 1062.921875 29.167969 C 1063.4375 29.167969 1063.230469 28.757812 1063.230469 28.550781 C 1065.089844 28.238281 1067.355469 27.726562 1068.492188 28.757812 Z M 1119.230469 29.476562 C 1116.65625 29.375 1114.28125 30.199219 1109.746094 29.992188 C 1109.230469 29.785156 1108.503906 29.582031 1107.578125 29.476562 C 1107.886719 29.375 1108.09375 29.269531 1108.304688 29.167969 C 1107.578125 28.960938 1106.652344 29.269531 1106.546875 28.546875 C 1108.503906 28.136719 1109.847656 28.445312 1111.804688 28.035156 C 1111.914062 28.960938 1111.1875 28.242188 1110.773438 29.167969 C 1113.148438 28.859375 1115.105469 29.476562 1117.066406 28.34375 C 1117.890625 28.242188 1117.789062 28.652344 1118.816406 28.445312 C 1118.925781 28.652344 1118.816406 28.859375 1118.925781 28.960938 C 1118.816406 29.167969 1119.125 29.269531 1119.230469 29.476562 Z M 1121.292969 29.066406 C 1120.984375 29.066406 1120.773438 29.167969 1120.675781 29.375 C 1119.640625 29.375 1119.949219 28.960938 1119.441406 28.859375 C 1119.441406 28.652344 1119.332031 28.34375 1119.847656 28.445312 C 1120.15625 28.753906 1120.882812 28.859375 1121.292969 29.066406 Z M 1130.785156 28.34375 C 1129.335938 28.34375 1128.71875 28.34375 1129.335938 28.859375 C 1127.683594 29.066406 1128.511719 28.242188 1127.894531 28.035156 C 1128.71875 28.035156 1129.542969 27.933594 1129.960938 27.726562 C 1130.0625 27.621094 1130.0625 27.519531 1130.371094 27.519531 C 1130.476562 27.828125 1130.269531 27.929688 1130.0625 28.035156 C 1130.476562 28.035156 1130.578125 28.238281 1130.785156 28.34375 Z M 1135.21875 31.128906 C 1135.320312 31.128906 1135.320312 31.230469 1135.320312 31.335938 L 1135.21875 31.335938 C 1135.21875 31.230469 1135.21875 31.230469 1135.21875 31.128906 Z M 1134.90625 31.746094 C 1134.597656 31.953125 1134.386719 32.261719 1133.460938 32.160156 C 1133.769531 31.644531 1132.84375 31.746094 1132.746094 31.542969 C 1133.046875 31.542969 1133.152344 31.542969 1133.253906 31.4375 C 1133.460938 31.4375 1133.671875 31.4375 1133.871094 31.4375 C 1133.871094 31.332031 1133.980469 31.332031 1133.980469 31.230469 C 1134.386719 31.335938 1135.21875 31.335938 1134.90625 31.746094 Z M 1136.972656 29.066406 C 1136.246094 29.167969 1136.355469 29.476562 1135.527344 29.476562 C 1135.628906 29.167969 1135.21875 29.167969 1135.21875 28.859375 C 1136.046875 28.859375 1136.761719 28.550781 1136.972656 29.066406 Z M 1174.101562 26.789062 C 1173.945312 26.867188 1173.800781 26.945312 1173.660156 27.023438 C 1173.785156 26.9375 1173.867188 26.832031 1174.101562 26.789062 Z M 1185.953125 27.414062 C 1185.546875 27.414062 1185.238281 27.722656 1184.929688 27.414062 C 1186.164062 27.210938 1184.621094 27.105469 1184.621094 26.898438 C 1185.136719 26.898438 1185.238281 26.695312 1185.644531 26.589844 C 1185.546875 27.003906 1185.753906 27.210938 1185.953125 27.414062 Z M 1197.308594 28.859375 C 1198.441406 28.960938 1199.160156 29.269531 1199.367188 29.683594 C 1199.160156 29.683594 1198.851562 29.683594 1198.640625 29.683594 C 1198.332031 29.167969 1197.40625 29.375 1197.308594 28.859375 Z M 1248.875 30.199219 C 1247.632812 30.613281 1247.941406 30.921875 1247.425781 31.746094 C 1245.882812 31.953125 1245.363281 32.46875 1243.199219 32.261719 C 1242.679688 31.746094 1243.40625 31.640625 1242.890625 31.335938 C 1243.921875 31.230469 1243.613281 31.746094 1244.640625 31.640625 C 1244.132812 31.023438 1245.78125 31.539062 1245.671875 31.128906 C 1245.054688 31.023438 1245.574219 30.921875 1245.980469 31.128906 C 1246.597656 30.820312 1245.671875 29.992188 1246.289062 30.304688 C 1247.015625 30.820312 1247.425781 29.996094 1248.050781 29.996094 C 1248.148438 30.304688 1248.566406 29.992188 1248.875 30.199219 Z M 1248.765625 32.363281 C 1248.558594 31.953125 1248.25 32.675781 1247.734375 32.570312 C 1247.632812 32.160156 1248.667969 31.539062 1248.765625 31.746094 C 1248.25 32.160156 1249.589844 32.367188 1248.765625 32.363281 Z M 1271.457031 32.570312 C 1271.039062 32.984375 1270.421875 33.398438 1269.496094 33.605469 C 1269.390625 33.398438 1269.390625 33.296875 1269.597656 32.984375 C 1269.390625 32.574219 1268.15625 32.882812 1268.355469 32.160156 C 1267.847656 32.46875 1267.332031 32.265625 1267.332031 32.675781 C 1265.988281 32.882812 1264.957031 32.46875 1263.621094 32.46875 C 1262.480469 32.46875 1261.34375 32.78125 1260.210938 33.089844 C 1259.902344 32.984375 1259.804688 32.78125 1259.804688 32.46875 C 1259.496094 32.46875 1259.59375 32.675781 1259.496094 32.777344 C 1259.386719 32.984375 1259.078125 32.675781 1258.460938 32.777344 C 1258.351562 33.808594 1255.777344 33.398438 1254.125 33.605469 C 1254.027344 33.605469 1254.027344 33.5 1253.917969 33.5 C 1253.617188 33.5 1253.410156 33.5 1253.101562 33.5 C 1252.992188 33.191406 1253.101562 32.777344 1253.507812 32.777344 C 1253.101562 32.054688 1250.625 32.363281 1249.28125 32.160156 C 1249.589844 31.953125 1249.589844 31.539062 1250.316406 31.539062 C 1251.351562 31.644531 1250.007812 31.847656 1250.316406 32.160156 C 1251.140625 31.746094 1251.757812 31.332031 1253.101562 31.644531 C 1252.992188 31.023438 1254.125 31.023438 1254.125 30.507812 C 1254.542969 30.714844 1255.785156 30.714844 1256.195312 30.507812 C 1254.75 31.640625 1257.328125 32.261719 1256.503906 32.878906 C 1256.710938 32.878906 1257.019531 32.878906 1257.226562 32.878906 C 1257.433594 32.878906 1257.742188 32.878906 1257.945312 32.878906 C 1257.636719 32.363281 1257.742188 31.953125 1258.667969 32.363281 C 1258.152344 32.054688 1258.878906 30.714844 1257.945312 30.609375 C 1258.050781 30.199219 1259.496094 30.507812 1258.976562 30.921875 C 1260.011719 30.816406 1260.21875 30.300781 1261.042969 29.992188 C 1261.554688 30.710938 1263.3125 29.992188 1263.722656 29.886719 C 1264.960938 29.992188 1266.195312 29.886719 1267.539062 29.785156 C 1266.304688 30.402344 1268.980469 30.609375 1270.324219 30.917969 C 1270.222656 31.851562 1270.222656 32.160156 1271.457031 32.570312 Z M 1317.246094 28.753906 C 1316.113281 28.652344 1315.496094 28.960938 1316.222656 29.269531 C 1313.328125 29.269531 1311.0625 29.890625 1308.894531 29.785156 C 1309.3125 29.992188 1309.203125 30.300781 1309.203125 30.714844 C 1307.550781 30.609375 1308.695312 31.332031 1308.175781 31.332031 C 1307.96875 31.128906 1307.761719 31.4375 1307.453125 31.539062 C 1306.835938 31.023438 1306.316406 31.4375 1305.382812 31.539062 C 1304.667969 31.125 1304.460938 30.609375 1303.324219 30.40625 C 1304.25 30.40625 1304.460938 30.609375 1304.769531 30.199219 C 1303.941406 30.199219 1304.050781 29.886719 1303.015625 29.992188 C 1301.46875 31.019531 1299.199219 29.679688 1298.066406 30.816406 C 1298.273438 31.019531 1298.480469 31.226562 1298.375 31.539062 C 1294.148438 31.640625 1289.710938 31.332031 1285.277344 31.332031 C 1287.753906 30.816406 1288.996094 29.164062 1292.398438 29.472656 C 1292.1875 28.957031 1297.757812 29.0625 1298.683594 29.679688 C 1298.992188 29.269531 1300.234375 28.546875 1300.75 28.855469 C 1300.441406 28.855469 1300.332031 29.164062 1300.75 29.164062 C 1302.089844 29.164062 1302.601562 28.855469 1303.226562 28.546875 C 1302.5 28.339844 1301.574219 28.652344 1301.46875 27.929688 C 1303.433594 27.515625 1304.769531 27.824219 1306.726562 27.410156 C 1306.835938 28.339844 1306.109375 27.617188 1305.699219 28.546875 C 1308.070312 28.238281 1310.027344 28.855469 1311.988281 27.722656 C 1312.8125 27.722656 1312.710938 28.03125 1313.746094 27.929688 C 1313.746094 28.136719 1313.535156 28.546875 1314.054688 28.546875 C 1314.671875 28.445312 1314.046875 27.726562 1314.769531 27.726562 C 1315.289062 28.136719 1316.628906 28.34375 1316.523438 28.652344 C 1316.730469 28.753906 1317.246094 28.652344 1317.246094 28.753906 Z M 1325.707031 27.722656 C 1324.257812 27.722656 1323.640625 27.722656 1324.257812 28.238281 C 1322.605469 28.445312 1323.433594 27.621094 1322.816406 27.414062 C 1323.640625 27.414062 1324.464844 27.3125 1324.882812 27.105469 C 1324.984375 27.003906 1324.984375 26.898438 1325.292969 26.898438 C 1325.398438 27.210938 1325.191406 27.3125 1324.984375 27.414062 C 1325.398438 27.414062 1325.5 27.621094 1325.707031 27.722656 Z M 1331.992188 28.445312 C 1331.277344 28.550781 1331.277344 28.960938 1330.550781 28.960938 C 1330.550781 28.753906 1330.140625 28.652344 1330.242188 28.238281 C 1331.066406 28.238281 1331.792969 27.929688 1331.992188 28.445312 Z M 1368.820312 26.164062 C 1368.667969 26.246094 1368.519531 26.324219 1368.382812 26.402344 C 1368.503906 26.3125 1368.589844 26.210938 1368.820312 26.164062 Z M 1380.882812 26.898438 C 1380.46875 26.898438 1380.160156 27.210938 1379.851562 26.898438 C 1381.085938 26.691406 1379.542969 26.589844 1379.542969 26.382812 C 1380.058594 26.382812 1380.160156 26.175781 1380.574219 26.074219 C 1380.46875 26.382812 1380.675781 26.589844 1380.882812 26.898438 Z M 1392.230469 28.34375 C 1393.363281 28.445312 1394.082031 28.753906 1394.289062 29.167969 C 1394.082031 29.167969 1393.773438 29.167969 1393.5625 29.167969 C 1393.253906 28.550781 1392.328125 28.753906 1392.230469 28.34375 Z M 1424.40625 32.363281 C 1424.613281 33.292969 1420.796875 33.292969 1421.929688 32.570312 C 1422.855469 32.984375 1422.648438 32.675781 1424.40625 32.363281 Z M 1431.726562 34.015625 C 1431.417969 34.324219 1431.625 34.738281 1431 34.941406 C 1429.96875 34.425781 1426.367188 34.941406 1425.742188 34.738281 C 1426.464844 34.632812 1427.082031 33.808594 1425.433594 33.910156 C 1425.332031 33.398438 1425.332031 32.984375 1426.464844 33.089844 C 1426.566406 33.398438 1426.058594 33.910156 1426.773438 33.910156 C 1428.324219 33.808594 1426.574219 33.191406 1427.5 33.089844 C 1427.707031 33.398438 1428.53125 33.398438 1428.222656 32.882812 C 1430.183594 33.191406 1429.667969 33.808594 1431.726562 34.015625 Z M 1454.824219 32.367188 C 1455.648438 32.261719 1456.582031 32.261719 1456.992188 31.953125 C 1458.027344 31.953125 1457.300781 32.882812 1458.433594 32.46875 C 1458.433594 32.675781 1458.234375 32.882812 1458.027344 32.984375 C 1456.582031 32.984375 1455.34375 32.777344 1454.824219 32.367188 Z M 1453.074219 32.160156 C 1453.28125 32.054688 1453.382812 32.054688 1453.492188 32.160156 C 1453.28125 32.160156 1453.183594 32.160156 1453.074219 32.160156 Z M 1443.796875 29.683594 C 1442.554688 30.097656 1442.863281 30.40625 1442.355469 31.230469 C 1440.804688 31.4375 1440.285156 31.953125 1438.121094 31.746094 C 1437.609375 31.230469 1438.328125 31.128906 1437.8125 30.820312 C 1438.84375 30.714844 1438.535156 31.230469 1439.570312 31.128906 C 1439.050781 30.507812 1440.703125 31.023438 1440.59375 30.613281 C 1439.976562 30.507812 1440.496094 30.40625 1440.902344 30.613281 C 1441.519531 30.304688 1440.59375 29.476562 1441.210938 29.789062 C 1441.9375 30.304688 1442.355469 29.476562 1442.972656 29.476562 C 1443.070312 29.789062 1443.480469 29.375 1443.796875 29.683594 Z M 1443.585938 31.851562 C 1443.378906 31.4375 1443.070312 32.160156 1442.554688 32.054688 C 1442.453125 31.644531 1443.480469 31.023438 1443.585938 31.230469 C 1443.179688 31.539062 1444.511719 31.746094 1443.585938 31.851562 Z M 1445.136719 31.4375 L 1445.136719 31.644531 C 1444.722656 31.644531 1444.304688 31.644531 1443.996094 31.542969 C 1444.304688 31.335938 1444.304688 30.921875 1445.03125 30.820312 L 1445.136719 30.820312 L 1445.136719 31.128906 C 1445.03125 31.230469 1444.929688 31.335938 1445.03125 31.4375 Z M 1450.90625 29.890625 C 1450.699219 30.097656 1450.5 30.300781 1450.5 30.507812 C 1450.289062 30.40625 1450.082031 30.304688 1449.882812 30.199219 C 1449.464844 30.199219 1449.054688 30.199219 1448.640625 30.199219 C 1448.746094 30.097656 1448.847656 29.996094 1448.847656 29.890625 C 1449.363281 30.199219 1450.5 30.199219 1450.90625 29.890625 Z M 1451.324219 32.675781 C 1451.632812 32.675781 1452.046875 32.46875 1452.457031 32.367188 C 1452.558594 32.367188 1452.558594 32.367188 1452.664062 32.367188 C 1452.664062 32.265625 1452.664062 32.265625 1452.664062 32.265625 C 1452.867188 32.160156 1452.972656 32.160156 1453.074219 32.160156 C 1452.972656 33.296875 1449.773438 32.570312 1448.121094 33.089844 C 1447.714844 33.191406 1447.605469 32.675781 1447.8125 32.367188 C 1447.921875 32.367188 1448.023438 32.261719 1448.023438 32.261719 C 1448.121094 32.261719 1448.121094 32.261719 1448.230469 32.261719 C 1448.121094 32.160156 1448.121094 32.054688 1448.023438 32.054688 C 1447.921875 31.953125 1447.921875 31.847656 1447.8125 31.847656 C 1448.847656 31.847656 1449.671875 32.054688 1449.882812 32.464844 C 1451.214844 32.160156 1451.117188 32.261719 1451.324219 32.675781 Z M 1451.324219 32.675781 " fill-opacity="1" fill-rule="nonzero"/></g><path fill="#000000" d="M 269.207031 32.757812 C 269.21875 32.753906 269.230469 32.75 269.238281 32.746094 C 269.191406 32.722656 269.148438 32.699219 269.101562 32.675781 C 269.125 32.703125 269.171875 32.726562 269.207031 32.757812 Z M 269.207031 32.757812 " fill-opacity="1" fill-rule="nonzero"/><path fill="#000000" d="M 1435.328125 27.53125 C 1435.683594 27.683594 1436.066406 27.757812 1436.46875 27.777344 C 1436.507812 27.761719 1436.570312 27.742188 1436.675781 27.726562 C 1436.578125 27.53125 1435.84375 27.609375 1435.328125 27.53125 Z M 1435.328125 27.53125 " fill-opacity="1" fill-rule="nonzero"/><path fill="#000000" d="M 131.785156 30.78125 C 131.785156 30.792969 131.796875 30.8125 131.800781 30.828125 C 131.910156 30.820312 132.023438 30.820312 132.136719 30.820312 C 132.011719 30.804688 131.902344 30.792969 131.785156 30.78125 Z M 131.785156 30.78125 " fill-opacity="1" fill-rule="nonzero"/><path fill="#000000" d="M 1386.847656 32.367188 C 1386.882812 32.351562 1386.914062 32.335938 1386.953125 32.324219 C 1386.945312 32.199219 1386.914062 32.109375 1386.882812 32.035156 C 1386.675781 32.195312 1386.492188 32.367188 1386.351562 32.558594 C 1386.390625 32.558594 1386.40625 32.558594 1386.429688 32.558594 C 1386.445312 32.46875 1386.574219 32.46875 1386.660156 32.46875 C 1386.660156 32.46875 1386.660156 32.46875 1386.660156 32.367188 C 1386.722656 32.367188 1386.785156 32.367188 1386.847656 32.367188 Z M 1386.847656 32.367188 " fill-opacity="1" fill-rule="nonzero"/><path fill="#000000" d="M 1191.753906 33.035156 C 1191.847656 33.015625 1191.941406 33.039062 1191.941406 33.085938 C 1192.371094 33.015625 1192.148438 32.894531 1192.046875 32.753906 C 1191.941406 32.84375 1191.847656 32.9375 1191.753906 33.035156 Z M 1191.753906 33.035156 " fill-opacity="1" fill-rule="nonzero"/><path fill="#000000" d="M 945.351562 30.8125 C 945.390625 30.816406 945.4375 30.820312 945.472656 30.828125 C 945.746094 30.671875 945.929688 30.4375 946.066406 30.714844 C 946.746094 30.714844 945.976562 30.507812 945.953125 30.265625 C 945.644531 30.390625 945.582031 30.660156 945.351562 30.8125 Z M 945.351562 30.8125 " fill-opacity="1" fill-rule="nonzero"/><path fill="#000000" d="M 1138.90625 27.445312 C 1138.867188 27.445312 1138.839844 27.457031 1138.800781 27.457031 C 1138.859375 27.535156 1138.914062 27.597656 1138.929688 27.613281 C 1138.898438 27.542969 1138.890625 27.488281 1138.90625 27.445312 Z M 1138.90625 27.445312 " fill-opacity="1" fill-rule="nonzero"/><path fill="#000000" d="M 1240.46875 28.246094 C 1240.800781 28.390625 1241.152344 28.460938 1241.523438 28.488281 C 1241.445312 28.394531 1241.4375 28.34375 1241.753906 28.34375 C 1241.65625 28.15625 1240.960938 28.222656 1240.445312 28.15625 C 1240.4375 28.171875 1240.429688 28.191406 1240.421875 28.210938 C 1240.4375 28.222656 1240.453125 28.230469 1240.46875 28.246094 Z M 1240.46875 28.246094 " fill-opacity="1" fill-rule="nonzero"/></svg>